<svg width="98" height="32" viewBox="0 0 98 32" fill="none" xmlns="http://www.w3.org/2000/svg">
<path d="M24.2481 16.4348C24.2481 15.2324 24.7257 14.0794 25.5759 13.2292C26.426 12.379 27.5791 11.9014 28.7815 11.9014C30.3409 11.9014 31.3979 12.4635 32.2786 13.343C33.219 14.2847 33.943 15.5708 34.7733 17.0643L34.8173 17.142C35.5945 18.5434 36.4791 20.1353 37.7018 21.358C39.0075 22.6636 40.7016 23.5586 43.0292 23.5586C44.2224 23.5587 45.3965 23.259 46.4437 22.6871C47.4909 22.1153 48.3777 21.2895 49.0227 20.2857C49.6677 19.2819 50.0502 18.1321 50.1352 16.942C50.2201 15.7518 50.0048 14.5594 49.5089 13.4741C49.013 12.3889 48.2525 11.4455 47.2971 10.7307C46.3417 10.0159 45.2221 9.55254 44.041 9.3831C42.8599 9.21365 41.6552 9.34358 40.5374 9.76096C39.4196 10.1783 38.4245 10.8698 37.6436 11.7719C38.164 12.5513 38.6489 13.3539 39.0968 14.1772C39.4933 13.4867 40.0646 12.9129 40.7533 12.5134C41.442 12.1139 42.2238 11.9028 43.0199 11.9014C43.8161 11.9 44.5986 12.1083 45.2887 12.5053C45.9788 12.9023 46.5522 13.4741 46.9512 14.1631C47.3501 14.8521 47.5606 15.634 47.5614 16.4301C47.5623 17.2263 47.3534 18.0086 46.9558 18.6985C46.5583 19.3883 45.986 19.9612 45.2967 20.3596C44.6074 20.7581 43.8254 20.9679 43.0292 20.9681C41.471 20.9681 40.4128 20.406 39.532 19.5265C38.5917 18.5849 37.8676 17.2987 37.0374 15.8053L36.9933 15.7276C36.2162 14.3261 35.3315 12.7342 34.1088 11.5115C32.8032 10.2059 31.109 9.3109 28.7815 9.3109C27.5883 9.31087 26.4142 9.61054 25.367 10.1824C24.3198 10.7543 23.433 11.58 22.788 12.5838C22.143 13.5877 21.7604 14.7374 21.6755 15.9276C21.5905 17.1177 21.8059 18.3102 22.3018 19.3954C22.7977 20.4807 23.5582 21.424 24.5136 22.1388C25.4689 22.8536 26.5885 23.317 27.7696 23.4864C28.9507 23.6559 30.1554 23.526 31.2732 23.1086C32.3911 22.6912 33.3861 21.9997 34.1671 21.0977C33.6467 20.3182 33.1618 19.5157 32.7138 18.6924C32.2167 19.5591 31.4471 20.2373 30.5247 20.6216C29.6023 21.0058 28.5788 21.0745 27.6133 20.8171C26.6479 20.5596 25.7945 19.9904 25.1859 19.1979C24.5773 18.4054 24.2476 17.434 24.2481 16.4348Z" fill="url(#paint0_linear_1_3)"/>
<path d="M5.60973 9.43381C6.23007 9.43381 6.8327 9.52358 7.4176 9.70314C8.02022 9.88269 8.59626 10.1445 9.14571 10.4887C9.23433 10.5635 9.33182 10.6383 9.43816 10.7131C9.52679 10.6383 9.62427 10.5635 9.73061 10.4887C10.2801 10.1445 10.8472 9.88269 11.4321 9.70314C12.0348 9.52358 12.6374 9.43381 13.24 9.43381C13.8604 9.43381 14.463 9.52358 15.0479 9.70314C15.6505 9.88269 16.2177 10.152 16.7494 10.5111C17.2989 10.8553 17.7774 11.3191 18.1851 11.9027C18.6105 12.4862 18.8232 13.182 18.8232 13.99V22.0923C18.7168 22.9901 18.1319 23.4764 17.0685 23.5512C16.5722 23.5512 16.1379 23.4165 15.7657 23.1472C15.4112 22.8629 15.234 22.5113 15.234 22.0923V14.1695C15.234 13.8104 15.1542 13.5112 14.9947 13.2718C14.8352 13.0174 14.658 12.8229 14.463 12.6882C14.268 12.5386 14.0642 12.4338 13.8515 12.374C13.6388 12.2992 13.4261 12.2618 13.2134 12.2618C13.0007 12.2618 12.788 12.2992 12.5754 12.374C12.3804 12.4338 12.1854 12.5386 11.9905 12.6882C11.7955 12.8229 11.6182 13.0174 11.4587 13.2718C11.2992 13.5112 11.2106 13.8104 11.1929 14.1695V22.0923C11.0865 22.9901 10.5016 23.4764 9.43816 23.5512C8.94189 23.5512 8.50764 23.4165 8.13543 23.1472C7.78095 22.8629 7.6037 22.5113 7.6037 22.0923V14.1695C7.6037 13.8104 7.52395 13.5112 7.36443 13.2718C7.20491 13.0174 7.02767 12.8229 6.8327 12.6882C6.63773 12.5386 6.4339 12.4338 6.22121 12.374C6.00852 12.2992 5.79583 12.2618 5.58314 12.2618C5.37045 12.2618 5.15776 12.2992 4.94507 12.374C4.7501 12.4338 4.55513 12.5386 4.36017 12.6882C4.1652 12.8229 3.98796 13.0174 3.82844 13.2718C3.66892 13.5112 3.5803 13.8104 3.56257 14.1695V22.0923C3.47395 22.9901 2.89792 23.4764 1.83446 23.5512C1.33818 23.5512 0.903937 23.4165 0.531728 23.1472C0.177242 22.8629 0 22.5113 0 22.0923V13.99C0.0354485 13.182 0.257002 12.4862 0.664659 11.9027C1.07232 11.3191 1.55087 10.8553 2.10032 10.5111C2.64978 10.152 3.21695 9.88269 3.80185 9.70314C4.40448 9.52358 5.0071 9.43381 5.60973 9.43381Z" fill="white"/>
<path d="M56.0555 21.5511C55.146 20.3206 54.2366 18.7068 53.3271 16.7096L51.5885 12.9648C51.4993 12.7686 51.4458 12.5547 51.428 12.3228C51.3923 11.8235 51.5439 11.3956 51.8827 11.0389C52.2215 10.6823 52.6673 10.5039 53.2201 10.5039C53.8264 10.5039 54.2722 10.6288 54.5575 10.8784C54.8607 11.1102 55.1014 11.4134 55.2797 11.7879L56.5369 14.8907C56.8579 15.6218 57.17 16.3173 57.4731 16.9771C57.7941 17.619 58.1508 18.2075 58.5431 18.7425C58.9532 19.2774 59.4079 19.5628 59.9072 19.5984C60.3887 19.5628 60.8434 19.2774 61.2714 18.7425C61.6459 18.2075 61.9847 17.619 62.2879 16.9771C62.6088 16.3173 62.9298 15.6218 63.2508 14.8907L64.508 11.7879C64.6863 11.4134 64.9181 11.1102 65.2034 10.8784C65.5066 10.6288 65.9613 10.5039 66.5676 10.5039C67.1204 10.5039 67.5662 10.6823 67.905 11.0389C68.2439 11.3956 68.3954 11.8235 68.3598 12.3228C68.3419 12.5547 68.2884 12.7686 68.1993 12.9648L66.4606 16.7096C65.5512 18.7068 64.6417 20.3206 63.7323 21.5511C62.8585 22.7637 61.5835 23.3789 59.9072 23.3967C58.2132 23.3789 56.9292 22.7637 56.0555 21.5511ZM73.1745 10.5574C73.656 10.5753 74.0661 10.7536 74.4049 11.0924C74.7437 11.4134 74.9221 11.8146 74.9399 12.2961V21.5511C74.8329 22.621 74.2444 23.2006 73.1745 23.2897C72.6752 23.2897 72.2383 23.1292 71.8638 22.8082C71.5072 22.4694 71.3288 22.0504 71.3288 21.5511V12.2961C71.3467 11.7968 71.5339 11.3866 71.8906 11.0657C72.2472 10.7268 72.6752 10.5574 73.1745 10.5574ZM70.9276 7.08013C70.9276 6.58082 71.1416 6.15285 71.5696 5.7962C71.9976 5.43955 72.5147 5.26123 73.121 5.26123C73.7273 5.26123 74.2444 5.43955 74.6724 5.7962C75.1004 6.15285 75.3144 6.58082 75.3144 7.08013C75.3144 7.59727 75.1004 8.03416 74.6724 8.39081C74.2444 8.74745 73.7273 8.92578 73.121 8.92578C72.5147 8.92578 71.9976 8.74745 71.5696 8.39081C71.1416 8.03416 70.9276 7.59727 70.9276 7.08013ZM83.6866 22.9687C82.1174 22.9152 80.9316 22.5497 80.1291 21.872C79.3266 21.1766 78.7471 20.4009 78.3904 19.5449C78.0338 18.6711 77.8555 17.7884 77.8555 16.8968C77.8555 15.9695 78.0249 15.0779 78.3637 14.222C78.7203 13.3482 79.2999 12.5725 80.1023 11.8949C80.9226 11.1994 81.9569 10.8428 83.2052 10.8249H93.3696C93.8689 10.8249 94.288 10.9943 94.6268 11.3331C94.9834 11.6541 95.1618 12.0464 95.1618 12.5101C95.1618 12.9915 94.9834 13.4017 94.6268 13.7405C94.288 14.0615 93.8689 14.222 93.3696 14.222H83.3657C82.9734 14.222 82.6256 14.3557 82.3225 14.6232C82.0372 14.8907 81.8232 15.2384 81.6805 15.6664C81.5557 16.0944 81.4933 16.5134 81.4933 16.9236C81.4933 17.3694 81.5557 17.8063 81.6805 18.2343C81.8232 18.6622 82.0372 19.01 82.3225 19.2774C82.6256 19.5271 82.9734 19.6608 83.3657 19.6787H93.3696C93.8689 19.6787 94.288 19.8392 94.6268 20.1601C94.9834 20.4811 95.1618 20.8645 95.1618 21.3103C95.1618 21.774 94.9834 22.1663 94.6268 22.4873C94.288 22.8082 93.8689 22.9687 93.3696 22.9687H83.6866ZM94.8408 16.8433C94.8408 17.1821 94.6892 17.4764 94.386 17.726C94.1186 17.9579 93.7797 18.0738 93.3696 18.0738H84.6228C84.2127 18.0738 83.865 17.9579 83.5797 17.726C83.2943 17.4764 83.1517 17.1821 83.1517 16.8433C83.1517 16.5223 83.2943 16.237 83.5797 15.9874C83.865 15.7556 84.2127 15.6396 84.6228 15.6396H93.3696C93.7797 15.6396 94.1275 15.7645 94.4128 16.0141C94.6981 16.2459 94.8408 16.5223 94.8408 16.8433Z" fill="#E5007A"/>
<defs>
<linearGradient id="paint0_linear_1_3" x1="21.6574" y1="16.4348" x2="50.1532" y2="16.4348" gradientUnits="userSpaceOnUse">
<stop stop-color="white"/>
<stop offset="1" stop-color="#E5007A"/>
</linearGradient>
</defs>
</svg>
