<svg width="86" height="86" viewBox="0 0 86 86" fill="none" xmlns="http://www.w3.org/2000/svg">
<rect width="85.8768" height="85.8768" rx="24" fill="white"/>
<path d="M10.7346 42.9384C10.7346 39.6169 12.0541 36.4315 14.4027 34.0828C16.7514 31.7342 19.9368 30.4147 23.2583 30.4147C27.5665 30.4147 30.4863 31.9676 32.9194 34.3972C35.5172 36.9986 37.5174 40.5517 39.8111 44.6774L39.9327 44.8921C42.0796 48.7637 44.5235 53.1613 47.9014 56.5391C51.5082 60.146 56.1885 62.6185 62.6185 62.6185C65.9147 62.6186 69.1582 61.7907 72.0512 60.2109C74.9441 58.6311 77.394 56.3499 79.1758 53.5768C80.9577 50.8037 82.0144 47.6274 82.2491 44.3396C82.4838 41.0517 81.8889 37.7575 80.519 34.7595C79.1491 31.7614 77.0481 29.1554 74.4088 27.1807C71.7695 25.206 68.6765 23.9259 65.4137 23.4578C62.1509 22.9897 58.8228 23.3486 55.7348 24.5016C52.6468 25.6547 49.8979 27.5649 47.7403 30.0569C49.1781 32.2101 50.5177 34.4273 51.7551 36.7016C52.8504 34.7943 54.4287 33.2091 56.3313 32.1054C58.2338 31.0018 60.3934 30.4187 62.5929 30.4147C64.7923 30.4108 66.954 30.9861 68.8605 32.083C70.767 33.1798 72.351 34.7593 73.4532 36.6627C74.5553 38.5661 75.1368 40.7261 75.139 42.9256C75.1413 45.125 74.5642 47.2863 73.466 49.1919C72.3677 51.0976 70.7869 52.6804 68.8827 53.7811C66.9785 54.8817 64.818 55.4615 62.6185 55.4621C58.3139 55.4621 55.3905 53.9092 52.9574 51.4796C50.3596 48.8782 48.3594 45.3251 46.0657 41.1994L45.9441 40.9847C43.7972 37.1131 41.3533 32.7155 37.9754 29.3377C34.3686 25.7308 29.6883 23.2583 23.2583 23.2583C19.9621 23.2582 16.7186 24.0861 13.8256 25.6659C10.9327 27.2457 8.48282 29.5269 6.70098 32.3C4.91914 35.0731 3.86239 38.2494 3.62771 41.5372C3.39302 44.8251 3.98793 48.1192 5.35783 51.1173C6.72772 54.1154 8.82872 56.7214 11.468 58.6961C14.1073 60.6708 17.2002 61.9509 20.4631 62.419C23.7259 62.8871 27.054 62.5282 30.142 61.3752C33.23 60.2221 35.9789 58.3119 38.1365 55.8199C36.6987 53.6667 35.3591 51.4495 34.1217 49.1752C32.7483 51.5696 30.6222 53.4432 28.074 54.5047C25.5259 55.5661 22.6985 55.756 20.0313 55.0447C17.3641 54.3334 15.0067 52.7609 13.3254 50.5716C11.6442 48.3822 10.7334 45.6988 10.7346 42.9384Z" fill="url(#paint0_linear_29_7)"/>
<defs>
<linearGradient id="paint0_linear_29_7" x1="3.57776" y1="42.9384" x2="82.299" y2="42.9384" gradientUnits="userSpaceOnUse">
<stop stop-color="#0066FF"/>
<stop offset="1" stop-color="#E5007A"/>
</linearGradient>
</defs>
</svg>
