<?xml version="1.0" encoding="utf-8"?>
<!-- Generator: Adobe Illustrator 25.0.0, SVG Export Plug-In . SVG Version: 6.00 Build 0)  -->
<svg version="1.1" id="Layer_1" xmlns="http://www.w3.org/2000/svg" xmlns:xlink="http://www.w3.org/1999/xlink" x="0px" y="0px"
	 viewBox="0 0 86 86" style="enable-background:new 0 0 86 86;" xml:space="preserve">
<style type="text/css">
	.st0{fill:#FFFFFF;}
	.st1{fill:url(#SVGID_1_);}
</style>
<path class="st0" d="M24,0h37.9c13.3,0,24,10.7,24,24v37.9c0,13.3-10.7,24-24,24H24c-13.3,0-24-10.7-24-24V24C0,10.7,10.7,0,24,0z"
	/>
<linearGradient id="SVGID_1_" gradientUnits="userSpaceOnUse" x1="5.8816" y1="46.6623" x2="84.6029" y2="46.6623" gradientTransform="matrix(1 0 0 -1 0 88)">
	<stop  offset="0" style="stop-color:#0066FF"/>
	<stop  offset="1" style="stop-color:#E5007A"/>
</linearGradient>
<path class="st1" d="M13,41.3c0-3.3,1.3-6.5,3.7-8.9c2.3-2.3,5.5-3.7,8.9-3.7c4.3,0,7.2,1.6,9.7,4c2.6,2.6,4.6,6.2,6.9,10.3l0.1,0.2
	c2.1,3.9,4.6,8.3,8,11.6c3.6,3.6,8.3,6.1,14.7,6.1c3.3,0,6.5-0.8,9.4-2.4c2.9-1.6,5.3-3.9,7.1-6.6c1.8-2.8,2.8-5.9,3.1-9.2
	c0.2-3.3-0.4-6.6-1.7-9.6c-1.4-3-3.5-5.6-6.1-7.6c-2.6-2-5.7-3.3-9-3.7c-3.3-0.5-6.6-0.1-9.7,1c-3.1,1.2-5.8,3.1-8,5.6
	c1.4,2.2,2.8,4.4,4,6.6c1.1-1.9,2.7-3.5,4.6-4.6c1.9-1.1,4.1-1.7,6.3-1.7c2.2,0,4.4,0.6,6.3,1.7c1.9,1.1,3.5,2.7,4.6,4.6
	c1.1,1.9,1.7,4.1,1.7,6.3c0,2.2-0.6,4.4-1.7,6.3c-1.1,1.9-2.7,3.5-4.6,4.6c-1.9,1.1-4.1,1.7-6.3,1.7c-4.3,0-7.2-1.6-9.7-4
	c-2.6-2.6-4.6-6.2-6.9-10.3l-0.1-0.2c-2.1-3.9-4.6-8.3-8-11.6c-3.6-3.6-8.3-6.1-14.7-6.1c-3.3,0-6.5,0.8-9.4,2.4
	c-2.9,1.6-5.3,3.9-7.1,6.6s-2.8,5.9-3.1,9.2c-0.2,3.3,0.4,6.6,1.7,9.6c1.4,3,3.5,5.6,6.1,7.6c2.6,2,5.7,3.3,9,3.7
	c3.3,0.5,6.6,0.1,9.7-1c3.1-1.2,5.8-3.1,8-5.6c-1.4-2.2-2.8-4.4-4-6.6c-1.4,2.4-3.5,4.3-6,5.3c-2.5,1.1-5.4,1.3-8,0.5
	s-5-2.3-6.7-4.5C13.9,46.8,13,44.1,13,41.3z"/>
</svg>
